{
.appVersion = "3151";
.formatVersion = 3;
customParameters = (
{
name = vendorID;
value = ADBO;
},
{
name = panose;
value = (
2,
11,
2,
0,
0,
0,
0,
0,
0,
0
);
},
{
name = unicodeRanges;
value = (
0,
1,
7,
29,
36,
42,
43,
44,
45,
48,
49,
50,
51,
52,
54,
55,
57,
59,
61,
65,
66,
68
);
},
{
name = codePageRanges;
value = (
"1252",
"1250",
"1251",
"1258",
"932",
"936",
"bit 29",
"bit 30"
);
},
{
name = fsType;
value = (
);
}
);
date = "2021-04-29 08:43:11 +0000";
familyName = "Yaku Han JP";
featurePrefixes = (
{
automatic = 1;
code = "languagesystem DFLT dflt;
";
name = Languagesystems;
}
);
features = (
{
automatic = 1;
code = "feature vert;
feature vrt2;
";
tag = aalt;
},
{
code = "sub comma-han by comma-han.vert;
sub period-han by period-han.vert;
sub colon.full by colon.full.vert;
sub blacklenticularbracketleft by blacklenticularbracketleft.vert;
sub blacklenticularbracketright by blacklenticularbracketright.vert;
sub cornerbracketleft by cornerbracketleft.vert;
sub cornerbracketright by cornerbracketright.vert;
sub dblanglebracketleft by dblanglebracketleft.vert;
sub dblanglebracketright by dblanglebracketright.vert;
sub tortoiseshellbracketleft by tortoiseshellbracketleft.vert;
sub tortoiseshellbracketright by tortoiseshellbracketright.vert;
sub whitecornerbracketleft by whitecornerbracketleft.vert;
sub whitecornerbracketright by whitecornerbracketright.vert;
sub whitelenticularbracketleft by whitelenticularbracketleft.vert;
sub whitelenticularbracketright by whitelenticularbracketright.vert;
sub braceleft.full by braceleft.full.vert;
sub braceright.full by braceright.full.vert;
sub bracketleft.full by bracketleft.full.vert;
sub bracketright.full by bracketright.full.vert;
sub parenleft.full by parenleft.full.vert;
sub parenright.full by parenright.full.vert;
sub angleLeft by anglebracketleft.vert;
sub angleRight by anglebracketright.vert;";
tag = vert;
},
{
automatic = 1;
code = "sub comma-han by comma-han.vert;
sub period-han by period-han.vert;

glyphs = (
{
glyphname = .notdef;
layers = (
{
layerId = m01;
shapes = (
{
closed = 1;
nodes = (
(900,880,l),
(100,880,l),
(100,-120,l),
(900,-120,l)
);
},
{
closed = 1;
nodes = (
(818,830,l),
(500,421,l),
(182,830,l)
);
},
{
closed = 1;
nodes = (
(850,-29,l),
(532,380,l),
(850,789,l)
);
},
{
closed = 1;
nodes = (
(818,-70,l),
(182,-70,l),
(500,339,l)
);
},
{
closed = 1;
nodes = (
(150,-29,l),
(150,789,l),
(468,380,l)
);
}
);
vertWidth = 1000;
width = 1000;
}
);
note = ".notdef";
},
{
glyphname = "comma-han";
lastChange = "2023-08-27 13:47:54 +0000";
layers = (
{
layerId = m01;
shapes = (
{
closed = 1;
nodes = (
(329,50,o),
(254,130,o),
(172,208,o),
(137,237,q),
(43,156,l),
(79,127,o),
(155,52,o),
(230,-27,o),
(260,-65,q),
(356,17,l)
);
}
);
vertWidth = 1000;
width = 556;
}
);
note = uni3001;
unicode = 12289;
},
{
glyphname = "comma-han.vert";
lastChange = "2023-08-27 13:48:38 +0000";
layers = (
{
layerId = m01;
shapes = (
{
closed = 1;
nodes = (
(926,651,o),
(852,729,o),
(772,805,o),
(737,833,q),
(645,755,l),
(697,711,o),
(813,593,o),
(859,538,q),
(953,618,l)
);
}
);
vertWidth = 542;
width = 1000;
}
);
note = uniFE11;
unicode = 65041;
},
{
glyphname = "period-han";
lastChange = "2023-08-27 13:47:58 +0000";
layers = (
{
layerId = m01;
shapes = (
{
closed = 1;
nodes = (
(78,204,o),
(35,132,o),
(35,88,qs),
(35,44,o),
(78,-28,o),
(150,-71,o),
(194,-71,qs),
(238,-71,o),
(310,-28,o),
(353,44,o),
(353,88,qs),
(353,132,o),
(310,204,o),
(238,247,o),
(194,247,qs),
(150,247,o)
);
},
{
closed = 1;
nodes = (
(126,19,o),
(101,62,o),
(101,88,qs),
(101,113,o),
(126,156,o),
(169,181,o),
(194,181,qs),
(220,181,o),
(262,156,o),
(287,113,o),
(287,88,qs),
(287,49,o),
(233,-5,o),
(194,-5,qs),
(168,-5,o)
);
}
);
vertWidth = 1000;
width = 753;
}
);
note = uni3002;
unicode = 12290;
},
{
glyphname = "period-han.vert";
lastChange = "2023-08-27 13:48:43 +0000";
layers = (
{
layerId = m01;
shapes = (
{
closed = 1;
nodes = (
(685,780,o),
(642,708,o),
(642,665,qs),
(642,622,o),
(685,552,o),
(756,509,o),
(799,509,qs),
(842,509,o),
(913,552,o),
(955,622,o),
(955,665,qs),
(955,709,o),
(913,780,o),
(842,822,o),
(799,822,qs),
(756,822,o)
);
},
{
closed = 1;
nodes = (
(732,599,o),
(708,640,o),
(708,666,qs),
(708,691,o),
(732,732,o),
(774,756,o),
(799,756,qs),
(824,756,o),
(865,732,o),
(890,691,o),
(890,665,qs),
(890,627,o),
(837,574,o),
(798,574,qs),
(774,574,o)
);
}
);
vertWidth = 771;
width = 1000;
}
);
note = uniFE12;
unicode = 65042;
},
{
glyphname = hyphenationpoint;
lastChange = "2023-08-27 13:48:06 +0000";
layers = (
{
layerId = m01;
shapes = (
{
closed = 1;
nodes = (
(183,469,o),
(150,414,o),
(150,380,qs),
(150,347,o),
(183,291,o),
(239,258,o),
(272,258,qs),
(306,258,o),
(361,291,o),
(394,347,o),
(394,380,qs),
(394,414,o),
(361,469,o),
(306,502,o),
(272,502,qs),
(239,502,o)
);
}
);
vertWidth = 1000;
width = 544;
}
);
note = uni2027;
unicode = (8231,12539);
},
{
glyphname = colon.full;
lastChange = "2023-08-27 13:48:06 +0000";
layers = (
{
layerId = m01;
shapes = (
{
closed = 1;
nodes = (
(330,574,o),
(330,612,qs),
(330,651,o),
(277,701,o),
(240,701,qs),
(203,701,o),
(150,651,o),
(150,612,qs),
(150,574,o),
(203,524,o),
(240,524,qs),
(277,524,o)
);
},
{
closed = 1;
nodes = (
(330,93,o),
(330,131,qs),
(330,171,o),
(277,221,o),
(240,221,qs),
(203,221,o),
(150,171,o),
(150,131,qs),
(150,93,o),
(203,43,o),
(240,43,qs),
(277,43,o)
);
}
);
vertWidth = 1000;
width = 480;
}
);
note = uniFF1A;
unicode = 65306;
},
{
glyphname = exclam.full;
lastChange = "2023-08-27 13:48:06 +0000";
layers = (
{
layerId = m01;
shapes = (
{
closed = 1;
nodes = (
(303,608,l),
(307,748,l),
(157,748,l),
(161,608,l),
(186,253,l),
(278,253,l)
);
},
{
closed = 1;
nodes = (
(314,38,o),
(314,74,qs),
(314,111,o),
(266,156,o),
(232,156,qs),
(198,156,o),
(150,111,o),
(150,74,qs),
(150,38,o),
(197,-8,o),
(232,-8,qs),
(266,-8,o)
);
}
);
vertWidth = 1000;
width = 464;
}
);
note = uniFF01;
unicode = 65281;
},
{
glyphname = question.full;
lastChange = "2023-08-27 13:48:06 +0000";
layers = (
{
layerId = m01;
shapes = (
{
closed = 1;
nodes = (
(442,288,o),
(468,342,o),
(515,385,o),
(571,427,o),
(620,471,o),
(652,527,o),
(652,564,qs),
(652,628,o),
(589,716,o),
(479,761,o),
(407,761,qs),
(327,761,o),
(199,695,o),
(150,640,q),
(224,572,l),
(263,613,o),
(345,654,o),
(392,654,qs),
(435,654,o),
(495,629,o),
(526,584,o),
(526,552,qs),
(526,527,o),
(494,485,o),
(446,446,o),
(392,404,o),
(348,355,o),
(325,293,o),
(331,253,q),
(447,253,l)
);
},
{
closed = 1;
nodes = (
(471,38,o),
(471,74,qs),
(471,111,o),
(424,156,o),
(390,156,qs),
(355,156,o),
(308,111,o),
(308,74,qs),
(308,38,o),
(355,-8,o),
(390,-8,qs),
(424,-8,o)
);
}
);
vertWidth = 1000;
width = 802;
}
);
note = uniFF1F;
unicode = 65311;
},
{
glyphname = semicolon.full;
lastChange = "2023-08-27 13:48:06 +0000";
layers = (
{
layerId = m01;
shapes = (
{
closed = 1;
nodes = (
(371,41,o),
(371,132,qs),
(371,198,o),
(318,274,o),
(268,274,qs),
(232,274,o),
(177,230,o),
(177,189,qs),
(177,148,o),
(231,104,o),
(267,104,qs),
(283,104,o),
(312,115,o),
(324,127,q),
(269,212,l),
(280,111,l),
(281,58,o),
(215,-24,o),
(150,-50,q),
(180,-122,l),
(271,-91,o)
);
},
{
closed = 1;
nodes = (
(353,574,o),
(353,612,qs),
(353,651,o),
(300,701,o),
(263,701,qs),
(226,701,o),
(173,651,o),
(173,612,qs),
(173,574,o),
(226,524,o),
(263,524,qs),
(300,524,o)
);
}
);
vertWidth = 1000;
width = 521;
}
);
note = uniFF1B;
unicode = 65307;
},
{
glyphname = colon.full.vert;
lastChange = "2023-08-27 13:48:50 +0000";
layers = (
{
layerId = m01;
shapes = (
{
closed = 1;
nodes = (
(349,603,o),
(349,642,qs),
(349,681,o),
(297,730,o),
(260,730,qs),
(223,730,o),
(170,681,o),
(170,642,qs),
(170,603,o),
(223,552,o),
(260,552,qs),
(297,552,o)
);
},
{
closed = 1;
nodes = (
(830,603,o),
(830,642,qs),
(830,681,o),
(777,730,o),
(740,730,qs),
(703,730,o),
(651,681,o),
(651,642,qs),
(651,603,o),
(703,552,o),
(740,552,qs),
(777,552,o)
);
}
);
vertWidth = 478;
width = 1000;
}
);
note = glyph17776;
},
{
glyphname = angleLeft;
lastChange = "2023-08-27 13:48:20 +0000";
layers = (
{
layerId = m01;
shapes = (
{
closed = 1;
nodes = (
(579,812,l),
(490,850,l),
(200,380,l),
(490,-90,l),
(579,-52,l),
(312,380,l)
);
}
);
vertWidth = 1000;
width = 632;
}
);
note = uni2329;
unicode = (9001,12296);
},
{
glyphname = angleRight;
lastChange = "2023-08-27 13:48:31 +0000";
layers = (
{
layerId = m01;
shapes = (
{
closed = 1;
nodes = (
(432,380,l),
(142,850,l),
(53,812,l),
(320,380,l),
(53,-52,l),
(142,-90,l)
);
}
);
vertWidth = 1000;
width = 632;
}
);
note = uni3009;
unicode = (9002,12297);
},
{
glyphname = blacklenticularbracketleft;
lastChange = "2023-08-27 13:48:20 +0000";
layers = (
{
layerId = m01;
shapes = (
{
closed = 1;
nodes = (
(200,850,l),
(200,-90,l),
(508,-90,l),
(508,-85,l),
(454,-38,o),
(364,101,o),
(310,278,o),
(310,380,qs),
(310,483,o),
(364,659,o),
(454,799,o),
(508,845,q),
(508,850,l)
);
}
);
vertWidth = 1000;
width = 538;
}
);
note = uni3010;
unicode = 12304;
},
{
glyphname = blacklenticularbracketright;
lastChange = "2023-08-27 13:48:31 +0000";
layers = (
{
layerId = m01;
shapes = (
{
closed = 1;
nodes = (
(30,850,l),
(30,845,l),
(85,799,o),
(174,659,o),
(228,483,o),
(228,380,qs),
(228,278,o),
(174,101,o),
(85,-38,o),
(30,-85,q),
(30,-90,l),
(338,-90,l),
(338,850,l)
);
}
);
vertWidth = 1000;
width = 538;
}
);
note = uni3011;
unicode = 12305;
},
{
glyphname = braceleft.full;
lastChange = "2023-08-27 13:48:20 +0000";
layers = (
{
layerId = m01;
shapes = (
{
closed = 1;
nodes = (
(479,-26,l),
(448,-26,ls),
(408,-26,o),
(382,13,o),
(382,63,qs),
(382,111,o),
(386,200,o),
(386,253,qs),
(386,312,o),
(351,368,o),
(312,378,q),
(312,382,l),
(351,393,o),
(386,449,o),
(386,507,qs),
(386,561,o),
(382,650,o),
(382,697,qs),
(382,748,o),
(408,786,o),
(448,786,qs),
(479,786,l),
(479,856,l),
(420,856,ls),
(351,856,o),
(284,791,o),
(284,703,qs),
(284,664,o),
(290,600,o),
(295,539,o),
(295,502,qs),
(295,482,o),
(277,444,o),
(237,419,o),
(200,418,q),
(200,343,l),
(237,342,o),
(277,317,o),
(295,279,o),
(295,259,qs),
(295,223,o),
(290,161,o),
(284,97,o),
(284,57,qs),
(284,-30,o),
(351,-95,o),
(420,-95,qs),
(479,-95,l)
);
}
);
vertWidth = 1000;
width = 510;
}
);
note = uniFF5B;
unicode = 65371;
},
{
glyphname = braceright.full;
lastChange = "2023-08-27 13:48:31 +0000";
layers = (
{
layerId = m01;
shapes = (
{
closed = 1;
nodes = (
(31,-26,l),
(62,-26,ls),
(102,-26,o),
(128,13,o),
(128,63,qs),
(128,111,o),
(124,200,o),
(124,253,qs),
(124,312,o),
(159,368,o),
(198,378,q),
(198,382,l),
(159,393,o),
(124,449,o),
(124,507,qs),
(124,561,o),
(128,650,o),
(128,697,qs),
(128,748,o),
(102,786,o),
(62,786,qs),
(31,786,l),
(31,856,l),
(90,856,ls),
(159,856,o),
(226,791,o),
(226,703,qs),
(226,664,o),
(221,600,o),
(215,539,o),
(215,502,qs),
(215,482,o),
(233,444,o),
(274,419,o),
(310,418,q),
(310,343,l),
(274,342,o),
(233,317,o),
(215,279,o),
(215,259,qs),
(215,223,o),
(221,161,o),
(226,97,o),
(226,57,qs),
(226,-30,o),
(159,-95,o),
(90,-95,qs),
(31,-95,l)
);
}
);
vertWidth = 1000;
width = 510;
}
);
note = uniFF5D;
unicode = 65373;
},
{
glyphname = cornerbracketleft;
lastChange = "2023-08-27 13:48:20 +0000";
layers = (
{
layerId = m01;
shapes = (
{
closed = 1;
nodes = (
(306,209,l),
(306,753,l),
(527,753,l),
(527,850,l),
(200,850,l),
(200,209,l)
);
}
);
vertWidth = 1000;
width = 557;
}
);
note = uni300C;
unicode = 12300;
},
{
glyphname = cornerbracketright;
lastChange = "2023-08-27 13:48:31 +0000";
layers = (
{
layerId = m01;
shapes = (
{
closed = 1;
nodes = (
(251,551,l),
(251,7,l),
(30,7,l),
(30,-90,l),
(357,-90,l),
(357,551,l)
);
}
);
vertWidth = 1000;
width = 557;
}
);
note = uni300D;
unicode = 12301;
},
{
glyphname = dblanglebracketleft;
lastChange = "2023-08-27 13:48:20 +0000";
layers = (
{
layerId = m01;
shapes = (
{
closed = 1;
nodes = (
(481,827,l),
(405,850,l),
(200,380,l),
(405,-90,l),
(481,-67,l),
(284,380,l)
);
},
{
closed = 1;
nodes = (
(649,827,l),
(574,850,l),
(369,380,l),
(574,-90,l),
(649,-67,l),
(452,380,l)
);
}
);
vertWidth = 1000;
width = 679;
}
);
note = uni300A;
unicode = 12298;
},
{
glyphname = dblanglebracketright;
lastChange = "2023-08-27 13:48:31 +0000";
layers = (
{
layerId = m01;
shapes = (
{
closed = 1;
nodes = (
(478,380,l),
(273,850,l),
(198,827,l),
(395,380,l),
(198,-67,l),
(273,-90,l)
);
},
{
closed = 1;
nodes = (
(310,380,l),
(105,850,l),
(30,827,l),
(226,380,l),
(30,-67,l),
(105,-90,l)
);
}
);
vertWidth = 1000;
width = 678;
}
);
note = uni300B;
unicode = 12299;
},
{
glyphname = tortoiseshellbracketleft;
lastChange = "2023-08-27 13:48:20 +0000";
layers = (
{
layerId = m01;
shapes = (
{
closed = 1;
nodes = (
(473,-31,l),
(299,80,l),
(299,680,l),
(473,791,l),
(429,862,l),
(200,715,l),
(200,45,l),
(429,-102,l)
);
}
);
vertWidth = 1000;
width = 502;
}
);
note = uni3014;
unicode = 12308;
},
{
glyphname = tortoiseshellbracketright;
lastChange = "2023-08-27 13:48:31 +0000";
layers = (
{
layerId = m01;
shapes = (
{
closed = 1;
nodes = (
(29,-31,l),
(203,80,l),
(203,680,l),
(29,791,l),
(73,862,l),
(302,715,l),
(302,45,l),
(73,-102,l)
);
}
);
vertWidth = 1000;
width = 502;
}
);
note = uni3015;
unicode = 12309;
},
{
glyphname = whitecornerbracketleft;
lastChange = "2023-08-27 13:48:20 +0000";
layers = (
{
layerId = m01;
shapes = (
{
closed = 1;
nodes = (
(570,850,l),
(200,850,l),
(200,189,l),
(386,189,l),
(386,679,l),
(570,679,l)
);
},
{
closed = 1;
nodes = (
(529,719,l),
(345,719,l),
(345,229,l),
(240,229,l),
(240,809,l),
(529,809,l)
);
}
);
vertWidth = 1000;
width = 600;
}
);
note = uni300E;
unicode = 12302;
},
{
glyphname = whitecornerbracketright;
lastChange = "2023-08-27 13:48:31 +0000";
layers = (
{
layerId = m01;
shapes = (
{
closed = 1;
nodes = (
(30,-90,l),
(400,-90,l),
(400,571,l),
(214,571,l),
(214,81,l),
(30,81,l)
);
},
{
closed = 1;
nodes = (
(71,41,l),
(255,41,l),
(255,531,l),
(360,531,l),
(360,-49,l),
(71,-49,l)
);
}
);
vertWidth = 1000;
width = 600;
}
);
note = uni300F;
unicode = 12303;
},
{
glyphname = whitelenticularbracketleft;
lastChange = "2023-08-27 13:48:20 +0000";
layers = (
{
layerId = m01;
shapes = (
{
closed = 1;
nodes = (
(464,-36,o),
(346,91,o),
(280,268,o),
(280,380,qs),
(280,492,o),
(346,669,o),
(464,797,o),
(543,833,q),
(543,850,l),
(200,850,l),
(200,-90,l),
(543,-90,l),
(543,-73,l)
);
},
{
closed = 1;
nodes = (
(225,825,l),
(478,825,l),
(443,803,o),
(365,730,o),
(298,622,o),
(255,476,o),
(255,380,qs),
(255,284,o),
(298,138,o),
(365,30,o),
(443,-43,o),
(478,-65,q),
(225,-65,l)
);
}
);
vertWidth = 1000;
width = 573;
}
);
note = uni3016;
unicode = 12310;
},
{
glyphname = whitelenticularbracketright;
lastChange = "2023-08-27 13:48:31 +0000";
layers = (
{
layerId = m01;
shapes = (
{
closed = 1;
nodes = (
(373,-90,l),
(373,850,l),
(30,850,l),
(30,833,l),
(109,797,o),
(227,669,o),
(293,492,o),
(293,380,qs),
(293,269,o),
(227,91,o),
(109,-36,o),
(30,-73,q),
(30,-90,l)
);
},
{
closed = 1;
nodes = (
(130,-43,o),
(208,30,o),
(275,138,o),
(318,284,o),
(318,380,qs),
(318,476,o),
(275,622,o),
(208,730,o),
(130,803,o),
(95,825,q),
(348,825,l),
(348,-65,l),
(95,-65,l)
);
}
);
vertWidth = 1000;
width = 573;
}
);
note = uni3017;
unicode = 12311;
},
{
glyphname = anglebracketleft.vert;
lastChange = "2023-08-27 13:48:58 +0000";
layers = (
{
layerId = m01;
shapes = (
{
closed = 1;
nodes = (
(932,301,l),
(970,390,l),
(500,680,l),
(30,390,l),
(68,301,l),
(500,568,l)
);
}
);
vertWidth = 632;
width = 1000;
}
);
note = uniFE3F;
unicode = 65087;
},
{
glyphname = anglebracketright.vert;
lastChange = "2023-08-27 13:49:04 +0000";
layers = (
{
layerId = m01;
shapes = (
{
closed = 1;
nodes = (
(68,827,l),
(30,738,l),
(500,448,l),
(970,738,l),
(932,827,l),
(500,560,l)
);
}
);
vertWidth = 632;
width = 1000;
}
);
note = uniFE40;
unicode = 65088;
},
{
glyphname = blacklenticularbracketleft.vert;
lastChange = "2023-08-27 13:49:11 +0000";
layers = (
{
layerId = m01;
shapes = (
{
closed = 1;
nodes = (
(970,680,l),
(30,680,l),
(30,372,l),
(35,372,l),
(82,427,o),
(221,516,o),
(398,570,o),
(500,570,qs),
(603,570,o),
(779,516,o),
(919,427,o),
(965,372,q),
(970,372,l)
);
}
);
vertWidth = 538;
width = 1000;
}
);
note = uniFE3B;
unicode = 65083;
},
{
glyphname = blacklenticularbracketright.vert;
lastChange = "2023-08-27 13:49:16 +0000";
layers = (
{
layerId = m01;
shapes = (
{
closed = 1;
nodes = (
(970,850,l),
(965,850,l),
(919,796,o),
(779,706,o),
(603,652,o),
(500,652,qs),
(398,652,o),
(221,706,o),
(82,796,o),
(35,850,q),
(30,850,l),
(30,542,l),
(970,542,l)
);
}
);
vertWidth = 538;
width = 1000;
}
);
note = uniFE3C;
unicode = 65084;
},
{
glyphname = bracketleft.full;
lastChange = "2023-08-27 13:48:20 +0000";
layers = (
{
layerId = m01;
shapes = (
{
closed = 1;
nodes = (
(457,-90,l),
(457,-18,l),
(298,-18,l),
(298,778,l),
(457,778,l),
(457,850,l),
(200,850,l),
(200,-90,l)
);
}
);
vertWidth = 1000;
width = 487;
}
);
note = uniFF3B;
unicode = 65339;
},
{
glyphname = bracketright.full;
lastChange = "2023-08-27 13:48:31 +0000";
layers = (
{
layerId = m01;
shapes = (
{
closed = 1;
nodes = (
(30,-90,l),
(30,-18,l),
(189,-18,l),
(189,778,l),
(30,778,l),
(30,850,l),
(287,850,l),
(287,-90,l)
);
}
);
vertWidth = 1000;
width = 487;
}
);
note = uniFF3D;
unicode = 65341;
},
{
glyphname = cornerbracketleft.vert;
lastChange = "2023-08-27 13:49:22 +0000";
layers = (
{
layerId = m01;
shapes = (
{
closed = 1;
nodes = (
(278,579,l),
(869,579,l),
(869,353,l),
(975,353,l),
(975,680,l),
(278,680,l)
);
}
);
vertWidth = 557;
width = 1000;
}
);
note = uniFE41;
unicode = 65089;
},
{
glyphname = cornerbracketright.vert;
lastChange = "2023-08-27 13:49:28 +0000";
layers = (
{
layerId = m01;
shapes = (
{
closed = 1;
nodes = (
(722,611,l),
(131,611,l),
(131,837,l),
(25,837,l),
(25,510,l),
(722,510,l)
);
}
);
vertWidth = 570;
width = 1000;
}
);
note = uniFE42;
unicode = 65090;
},
{
glyphname = dblanglebracketleft.vert;
lastChange = "2023-08-27 13:49:34 +0000";
layers = (
{
layerId = m01;
shapes = (
{
closed = 1;
nodes = (
(947,400,l),
(970,475,l),
(500,680,l),
(30,475,l),
(53,400,l),
(500,597,l)
);
},
{
closed = 1;
nodes = (
(947,232,l),
(970,307,l),
(500,512,l),
(30,307,l),
(53,232,l),
(500,428,l)
);
}
);
vertWidth = 678;
width = 1000;
}
);
note = uniFE3D;
unicode = 65085;
},
{
glyphname = dblanglebracketright.vert;
lastChange = "2023-08-27 13:49:40 +0000";
layers = (
{
layerId = m01;
shapes = (
{
closed = 1;
nodes = (
(53,682,l),
(30,607,l),
(500,402,l),
(970,607,l),
(947,682,l),
(500,485,l)
);
},
{
closed = 1;
nodes = (
(53,850,l),
(30,775,l),
(500,570,l),
(970,775,l),
(947,850,l),
(500,654,l)
);
}
);
vertWidth = 678;
width = 1000;
}
);
note = uniFE3E;
unicode = 65086;
},
{
glyphname = parenleft.full;
lastChange = "2023-08-27 13:48:20 +0000";
layers = (
{
layerId = m01;
shapes = (
{
closed = 1;
nodes = (
(252,100,o),
(342,-43,o),
(398,-99,q),
(483,-60,l),
(431,-4,o),
(349,128,o),
(302,287,o),
(302,380,qs),
(302,474,o),
(349,632,o),
(431,765,o),
(483,820,q),
(398,859,l),
(342,804,o),
(252,660,o),
(200,484,o),
(200,380,qs),
(200,276,o)
);
}
);
vertWidth = 1000;
width = 528;
}
);
note = uniFF08;
unicode = 65288;
},
{
glyphname = parenright.full;
lastChange = "2023-08-27 13:48:31 +0000";
layers = (
{
layerId = m01;
shapes = (
{
closed = 1;
nodes = (
(276,660,o),
(186,804,o),
(130,859,q),
(45,820,l),
(97,765,o),
(179,632,o),
(226,474,o),
(226,380,qs),
(226,287,o),
(179,128,o),
(97,-4,o),
(45,-60,q),
(130,-99,l),
(186,-43,o),
(276,100,o),
(328,276,o),
(328,380,qs),
(328,484,o)
);
}
);
vertWidth = 1000;
width = 528;
}
);
note = uniFF09;
unicode = 65289;
},
{
glyphname = tortoiseshellbracketleft.vert;
lastChange = "2023-08-27 13:49:46 +0000";
layers = (
{
layerId = m01;
shapes = (
{
closed = 1;
nodes = (
(89,407,l),
(200,581,l),
(800,581,l),
(911,407,l),
(982,451,l),
(835,680,l),
(165,680,l),
(18,451,l)
);
}
);
vertWidth = 502;
width = 1000;
}
);
note = uniFE39;
unicode = 65081;
},
{
glyphname = tortoiseshellbracketright.vert;
lastChange = "2023-08-27 13:49:53 +0000";
layers = (
{
layerId = m01;
shapes = (
{
closed = 1;
nodes = (
(89,851,l),
(200,677,l),
(800,677,l),
(911,851,l),
(982,807,l),
(835,578,l),
(165,578,l),
(18,807,l)
);
}
);
vertWidth = 502;
width = 1000;
}
);
note = uniFE3A;
unicode = 65082;
},
{
glyphname = whitecornerbracketleft.vert;
lastChange = "2023-08-27 13:49:59 +0000";
layers = (
{
layerId = m01;
shapes = (
{
closed = 1;
nodes = (
(970,325,l),
(970,680,l),
(309,680,l),
(309,508,l),
(789,508,l),
(789,325,l)
);
},
{
closed = 1;
nodes = (
(829,366,l),
(829,549,l),
(349,549,l),
(349,639,l),
(929,639,l),
(929,366,l)
);
}
);
vertWidth = 585;
width = 1000;
}
);
note = uniFE43;
unicode = 65091;
},
{
glyphname = whitecornerbracketright.vert;
lastChange = "2023-08-27 13:50:05 +0000";
layers = (
{
layerId = m01;
shapes = (
{
closed = 1;
nodes = (
(30,850,l),
(30,495,l),
(691,495,l),
(691,667,l),
(211,667,l),
(211,850,l)
);
},
{
closed = 1;
nodes = (
(171,809,l),
(171,626,l),
(651,626,l),
(651,536,l),
(71,536,l),
(71,809,l)
);
}
);
vertWidth = 585;
width = 1000;
}
);
note = uniFE44;
unicode = 65092;
},
{
glyphname = whitelenticularbracketleft.vert;
lastChange = "2023-08-27 13:50:11 +0000";
layers = (
{
layerId = m01;
shapes = (
{
closed = 1;
nodes = (
(84,416,o),
(211,534,o),
(388,600,o),
(500,600,qs),
(612,600,o),
(789,534,o),
(917,416,o),
(953,337,q),
(970,337,l),
(970,680,l),
(30,680,l),
(30,337,l),
(47,337,l)
);
},
{
closed = 1;
nodes = (
(945,655,l),
(945,402,l),
(923,437,o),
(850,515,o),
(742,582,o),
(596,625,o),
(500,625,qs),
(404,625,o),
(258,582,o),
(150,515,o),
(77,437,o),
(55,402,q),
(55,655,l)
);
}
);
vertWidth = 573;
width = 1000;
}
);
note = uniFE17;
unicode = 65047;
},
{
glyphname = whitelenticularbracketright.vert;
lastChange = "2023-08-27 13:50:16 +0000";
layers = (
{
layerId = m01;
shapes = (
{
closed = 1;
nodes = (
(30,507,l),
(970,507,l),
(970,850,l),
(953,850,l),
(917,771,o),
(789,653,o),
(612,587,o),
(500,587,qs),
(389,587,o),
(211,653,o),
(84,771,o),
(47,850,q),
(30,850,l)
);
},
{
closed = 1;
nodes = (
(77,750,o),
(150,672,o),
(258,605,o),
(404,562,o),
(500,562,qs),
(596,562,o),
(742,605,o),
(850,672,o),
(923,750,o),
(945,785,q),
(945,532,l),
(55,532,l),
(55,785,l)
);
}
);
vertWidth = 573;
width = 1000;
}
);
note = uniFE18;
unicode = 65048;
},
{
glyphname = braceleft.full.vert;
lastChange = "2023-08-27 13:50:22 +0000";
layers = (
{
layerId = m01;
shapes = (
{
closed = 1;
nodes = (
(94,401,l),
(94,432,ls),
(94,472,o),
(133,498,o),
(183,498,qs),
(231,498,o),
(320,494,o),
(373,494,qs),
(432,494,o),
(488,529,o),
(498,568,q),
(502,568,l),
(513,529,o),
(569,494,o),
(627,494,qs),
(681,494,o),
(770,498,o),
(817,498,qs),
(868,498,o),
(906,472,o),
(906,432,qs),
(906,401,l),
(976,401,l),
(976,460,ls),
(976,529,o),
(911,596,o),
(823,596,qs),
(784,596,o),
(720,591,o),
(659,585,o),
(622,585,qs),
(602,585,o),
(564,603,o),
(539,644,o),
(538,680,q),
(463,680,l),
(462,644,o),
(437,603,o),
(399,585,o),
(379,585,qs),
(343,585,o),
(281,591,o),
(217,596,o),
(177,596,qs),
(90,596,o),
(25,529,o),
(25,460,qs),
(25,401,l)
);
}
);
vertWidth = 510;
width = 1000;
}
);
note = uniFE37;
unicode = 65079;
},
{
glyphname = braceright.full.vert;
lastChange = "2023-08-27 13:50:28 +0000";
layers = (
{
layerId = m01;
shapes = (
{
closed = 1;
nodes = (
(906,849,l),
(906,818,ls),
(906,778,o),
(867,752,o),
(817,752,qs),
(769,752,o),
(680,756,o),
(627,756,qs),
(569,756,o),
(512,721,o),
(502,682,q),
(498,682,l),
(488,721,o),
(431,756,o),
(373,756,qs),
(319,756,o),
(230,752,o),
(183,752,qs),
(132,752,o),
(94,778,o),
(94,818,qs),
(94,849,l),
(24,849,l),
(24,790,ls),
(24,721,o),
(89,654,o),
(177,654,qs),
(217,654,o),
(280,660,o),
(342,665,o),
(378,665,qs),
(399,665,o),
(436,647,o),
(461,607,o),
(462,570,q),
(537,570,l),
(538,607,o),
(563,647,o),
(601,665,o),
(621,665,qs),
(658,665,o),
(719,660,o),
(783,654,o),
(823,654,qs),
(910,654,o),
(975,721,o),
(975,790,qs),
(975,849,l)
);
}
);
vertWidth = 510;
width = 1000;
}
);
note = uniFE38;
unicode = 65080;
},
{
glyphname = bracketleft.full.vert;
lastChange = "2023-08-27 13:50:34 +0000";
layers = (
{
layerId = m01;
shapes = (
{
closed = 1;
nodes = (
(30,423,l),
(102,423,l),
(102,582,l),
(898,582,l),
(898,423,l),
(970,423,l),
(970,680,l),
(30,680,l)
);
}
);
vertWidth = 487;
width = 1000;
}
);
note = uniFE47;
unicode = 65095;
},
{
glyphname = bracketright.full.vert;
lastChange = "2023-08-27 13:50:39 +0000";
layers = (
{
layerId = m01;
shapes = (
{
closed = 1;
nodes = (
(30,850,l),
(102,850,l),
(102,691,l),
(898,691,l),
(898,850,l),
(970,850,l),
(970,593,l),
(30,593,l)
);
}
);
vertWidth = 487;
width = 1000;
}
);
note = uniFE48;
unicode = 65096;
},
{
glyphname = parenleft.full.vert;
lastChange = "2023-08-27 13:50:44 +0000";
layers = (
{
layerId = m01;
shapes = (
{
closed = 1;
nodes = (
(220,628,o),
(77,538,o),
(21,482,q),
(60,397,l),
(116,449,o),
(248,531,o),
(407,578,o),
(500,578,qs),
(594,578,o),
(752,531,o),
(885,449,o),
(940,397,q),
(979,482,l),
(924,538,o),
(780,628,o),
(604,680,o),
(500,680,qs),
(396,680,o)
);
}
);
vertWidth = 528;
width = 1000;
}
);
note = uniFE35;
unicode = 65077;
},
{
glyphname = parenright.full.vert;
lastChange = "2023-08-27 13:50:50 +0000";
layers = (
{
layerId = m01;
shapes = (
{
closed = 1;
nodes = (
(780,604,o),
(924,694,o),
(979,750,q),
(940,835,l),
(885,783,o),
(752,701,o),
(594,654,o),
(500,654,qs),
(407,654,o),
(248,701,o),
(116,783,o),
(60,835,q),
(21,750,l),
(77,694,o),
(220,604,o),
(396,552,o),
(500,552,qs),
(604,552,o)
);
}
